<?xml version="1.0" encoding="utf-8"?>
<!-- Generator: Adobe Illustrator 26.0.0, SVG Export Plug-In . SVG Version: 6.00 Build 0)  -->
<svg version="1.1" id="Livello_1" xmlns="http://www.w3.org/2000/svg" xmlns:xlink="http://www.w3.org/1999/xlink" x="0px" y="0px"
	 viewBox="0 0 700 700" style="enable-background:new 0 0 700 700;" xml:space="preserve">
<style type="text/css">
	.st0{fill:#22918E;}
</style>
<path class="st0" d="M650.1,160.4H523.8l0-79c0-26.1-21.3-47.4-47.4-47.4H223.6c-26.1,0-47.4,21.3-47.4,47.4v79H49.9
	c-26.1,0-47.4,21.3-47.4,47.4v410.7c0,26.1,21.3,47.4,47.4,47.4h600.3c26.1,0,47.4-21.3,47.4-47.4l0-410.7
	C697.5,181.7,676.3,160.4,650.1,160.4L650.1,160.4z M207.8,81.4c0-8.7,7.1-15.8,15.8-15.8h252.8c8.7,0,15.8,7.1,15.8,15.8v79H207.8
	L207.8,81.4z M49.8,192h600.3c8.7,0,15.8,7.1,15.8,15.8v117c-81.2,46.8-166.1,75.2-252.8,84.6l0-27.9c0-17.4-14.2-31.6-31.6-31.6
	h-63.2c-17.4,0-31.6,14.2-31.6,31.6v27.9C200.1,400,115.2,371.6,34,324.8v-117C34,199.1,41.1,192,49.8,192L49.8,192z M381.6,476.4
	h-63.2v-94.8h63.2L381.6,476.4z M650.1,634.4H49.8c-8.7,0-15.8-7.1-15.8-15.8L34,361c81.3,44.3,166.1,71.3,252.8,80.2l0,35.1
	c0,17.4,14.2,31.6,31.6,31.6h63.2c17.4,0,31.6-14.2,31.6-31.6v-35.1c86.6-9,171.4-35.9,252.8-80.2v257.6
	C665.9,627.3,658.8,634.4,650.1,634.4L650.1,634.4z"/>
</svg>
