<?xml version="1.0" encoding="utf-8"?>
<!-- Generator: Adobe Illustrator 26.0.0, SVG Export Plug-In . SVG Version: 6.00 Build 0)  -->
<svg version="1.1" id="Livello_1" xmlns="http://www.w3.org/2000/svg" xmlns:xlink="http://www.w3.org/1999/xlink" x="0px" y="0px"
	 viewBox="0 0 700 700" style="enable-background:new 0 0 700 700;" xml:space="preserve">
<style type="text/css">
	.st0{fill:#22918E;}
</style>
<g>
	<path class="st0" d="M675,50H25C10,50,0,60,0,75v150c0,15,10,25,25,25v375c0,15,10,25,25,25h600c15,0,25-10,25-25V250
		c15,0,25-10,25-25V75C700,60,690,50,675,50z M50,100h600v100H50V100z M625,600H75V250h550V600z"/>
	<path class="st0" d="M400,125H300c-15,0-25,10-25,25s10,25,25,25h100c15,0,25-10,25-25S415,125,400,125z"/>
	<path class="st0" d="M287.5,425h125c35,0,62.5-27.5,62.5-62.5S447.5,300,412.5,300h-125c-35,0-62.5,27.5-62.5,62.5
		S252.5,425,287.5,425z M287.5,350h125c7.5,0,12.5,5,12.5,12.5s-5,12.5-12.5,12.5h-125c-7.5,0-12.5-5-12.5-12.5S280,350,287.5,350z"
		/>
</g>
</svg>
