<?xml version="1.0" encoding="utf-8"?>
<!-- Generator: Adobe Illustrator 26.0.0, SVG Export Plug-In . SVG Version: 6.00 Build 0)  -->
<svg version="1.1" id="Livello_1" xmlns="http://www.w3.org/2000/svg" xmlns:xlink="http://www.w3.org/1999/xlink" x="0px" y="0px"
	 viewBox="0 0 700 700" style="enable-background:new 0 0 700 700;" xml:space="preserve">
<style type="text/css">
	.st0{fill:#22918E;}
</style>
<path class="st0" d="M586.1,85.6c-10.3,0-18.7,10.4-18.9,18.9v491.1c0,9.9,9,18.9,18.9,18.9h94.4c9.9,0,18.9-9,18.9-18.9V104.5
	c0-9.9-9-18.9-18.9-18.9H586.1z M605,123.3h56.7v453.3H605L605,123.3z M397.2,161.1c-10.3,0-18.7,10.4-18.9,18.9v415.5
	c0,9.9,9,18.9,18.9,18.9h94.4c9.9,0,18.9-9,18.9-18.9V180c0-9.9-9-18.9-18.9-18.9H397.2z M416.1,198.9h56.7v377.8h-56.7V198.9z
	 M208.3,236.7c-10.3,0-18.7,10.4-18.9,18.9v340c0,9.9,9,18.9,18.9,18.9h94.4c9.9,0,18.9-9,18.9-18.9v-340c0-9.9-9-18.9-18.9-18.9
	H208.3z M227.2,274.4h56.7v302.2h-56.7V274.4z M19.5,312.2c-10.3,0-18.7,10.4-18.9,18.9v264.4c0,9.9,9,18.9,18.9,18.9h94.4
	c9.9,0,18.9-9,18.9-18.9V331.1c0-9.9-9-18.9-18.9-18.9L19.5,312.2z M38.3,350H95v226.7H38.3V350z"/>
</svg>
