<?xml version="1.0" encoding="utf-8"?>
<!-- Generator: Adobe Illustrator 26.0.0, SVG Export Plug-In . SVG Version: 6.00 Build 0)  -->
<svg version="1.1" id="Livello_1" xmlns="http://www.w3.org/2000/svg" xmlns:xlink="http://www.w3.org/1999/xlink" x="0px" y="0px"
	 viewBox="0 0 700 700" style="enable-background:new 0 0 700 700;" xml:space="preserve">
<style type="text/css">
	.st0{fill:#22918E;}
</style>
<path class="st0" d="M486.3,3.2c89,55.3,148.1,154.3,148.1,266.6c0,165.6-128.9,301.4-291.7,312.6v22.8h65.6c9.5,0,18.6,8,21,15.7
	l14.6,51c3.8,13-7.4,28-21,28H218.8c-13.5,0-24.8-15-21-28l14.6-51c2.6-9,11.6-15.7,21-15.7H299v-22.8
	c-36.6-2.5-71.4-11.3-103.4-25.3c-11.1-4.1-17.3-18.3-12.6-29.2c4.7-10.9,19.3-16.2,29.9-10.9c33.1,14.5,69.6,22.6,108,22.6
	c149.2,0,269.8-120.5,269.8-269.8c0-97-51-181.9-127.6-229.5c-8.3-4.8-12.6-15.5-10.1-24.7C460.1-0.4,473-3.2,486.3,3.2L486.3,3.2z
	 M320.8,14.6C461.5,14.6,576,129.1,576,269.8C576,410.5,461.5,525,320.8,525C180.2,525,65.6,410.5,65.6,269.8S180.2,14.6,320.8,14.6
	z M320.8,58.4c-26.2,0-51.4,4.8-74.5,13.4c-13.2,23.9-12.6,48-13,67.2c-0.4,18,7.3,27.8,18.7,46.3c5.2,8.4,15.1,17.3,25.7,26.7
	c10.7,9.4,24,19,28,39c3.9,19.5,6.9,40.5,12.1,53.8c2.6,6.6,5.6,10.9,8,13c2.4,2.1,4.1,3.2,9.6,3.2c3.5,0,4.4-0.6,7.1-3
	c2.7-2.4,6.2-7.3,9.8-14.4c8.6-17,9.9-30.3,10-46.5c0.1-16.1-1.6-35,2.7-57.2c4.9-24.8,19.8-40.5,29.6-51.5
	c9.8-11,13.7-15.7,13.7-24.4c0-28-6-43.1-18.9-54.2C367.9,62.4,344.9,58.4,320.8,58.4L320.8,58.4z M191.4,102.3
	c-50,38.6-82,99.2-82,167.5c0,26.2,4.8,51.4,13.4,74.5c18.1-6.6,38.2-7.7,58.3-8.9h1.4c38.5,0,69.1,12.8,81.8,39
	c12.5,25.9,1.3,56.6-22.6,78.4l0.2,0.2c-0.3,0.3-0.6,0.4-0.9,0.7c-3.1,3-6,5.8-8.9,8.2c26.9,12.4,57,19.4,88.6,19.4
	c117,0,211.4-94.4,211.4-211.4c0-68.1-32-128.4-81.8-167c0.9,6.9,1.6,13.9,1.6,21.2c0,24.7-14.3,41.7-24.6,53.3
	c-10.3,11.6-17.3,19.2-19.6,31c-2.9,14.9-1.7,30-1.8,49c-0.1,19-2.2,41.8-14.6,66.1c-4.9,9.6-11,19.3-20,27.3
	c-9.1,8-22.1,13.9-36,13.9c-14.7,0-28.7-5.5-38.5-14.1c-9.8-8.6-15.6-19.2-19.8-29.8c-8.4-21.4-10.7-44.4-14.1-61.3
	c0.2,1.1-4.1-5.8-14.1-14.6c-10.1-8.8-23.9-19.8-34.2-36.5c-10.2-16.5-25.7-38.4-25.1-70.2v-0.2C189.8,130,189.5,117.2,191.4,102.3
	L191.4,102.3z M182.5,379.2c-14.9,1-28.9,3.4-39.2,5.9c12.8,19.7,28.9,37.1,47.4,51.5c0.3-0.2,0.2,0,0.7-0.2
	c3.7-1.6,10.5-5.2,19.6-14.4c0.3-0.3,0.6-0.6,0.9-0.9c15.5-13.8,15.6-22.6,13.2-27.6C222.7,388.6,211.4,379.2,182.5,379.2
	L182.5,379.2z M391.9,649H249.7l-2,7.3H394L391.9,649z"/>
</svg>
