<?xml version="1.0" encoding="utf-8"?>
<!-- Generator: Adobe Illustrator 26.0.0, SVG Export Plug-In . SVG Version: 6.00 Build 0)  -->
<svg version="1.1" id="Livello_1" xmlns="http://www.w3.org/2000/svg" xmlns:xlink="http://www.w3.org/1999/xlink" x="0px" y="0px"
	 viewBox="0 0 700 700" style="enable-background:new 0 0 700 700;" xml:space="preserve">
<style type="text/css">
	.st0{fill:#22918E;}
</style>
<path class="st0" d="M664.6,192L410.7,30.9c-18.1-11.5-39.2-17.6-60.6-17.6s-42.5,6.1-60.6,17.6L35.5,192
	c-21.8,13.8-35,37.9-35,63.7s13.2,49.9,35,63.7l95.4,60.5l-7.2-4.6v147.1c0,25.8,13.2,49.9,35,63.7l130.7,82.9
	c18.1,11.5,39.2,17.6,60.6,17.6s42.5-6.1,60.6-17.6l130.7-82.9h0c21.8-13.8,35-37.9,35-63.7V375.4l75.5-47.9v210.3
	c0,10.4,8.4,18.9,18.9,18.9c10.4,0,18.9-8.4,18.9-18.9V293c9.6-16.8,12.4-36.7,7.8-55.5C692.7,218.7,681,202.4,664.6,192L664.6,192z
	 M538.7,399.3v123.2c0,12.9-6.6,25-17.5,31.9l-130.7,82.9c-12.1,7.7-26.1,11.7-40.4,11.7c-14.3,0-28.3-4.1-40.4-11.7l-130.7-82.9
	c-10.9-6.9-17.5-18.9-17.5-31.9V399.3l128,81.2c18.1,11.5,39.2,17.6,60.6,17.6s42.5-6.1,60.6-17.6L538.7,399.3z M644.4,287.5
	L390.4,448.6c-12.1,7.7-26.1,11.7-40.4,11.7c-14.3,0-28.3-4.1-40.4-11.7L55.7,287.6v0c-10.9-6.9-17.5-18.9-17.5-31.8
	c0-12.9,6.6-24.9,17.5-31.9L309.6,62.7h0C321.7,55.1,335.7,51,350,51c14.3,0,28.3,4.1,40.4,11.7l253.9,161.1
	c10.9,6.9,17.5,18.9,17.5,31.9C661.9,268.6,655.3,280.6,644.4,287.5L644.4,287.5z"/>
</svg>
