<?xml version="1.0" encoding="utf-8"?>
<!-- Generator: Adobe Illustrator 26.0.0, SVG Export Plug-In . SVG Version: 6.00 Build 0)  -->
<svg version="1.1" id="Livello_1" xmlns="http://www.w3.org/2000/svg" xmlns:xlink="http://www.w3.org/1999/xlink" x="0px" y="0px"
	 viewBox="0 0 700 700" style="enable-background:new 0 0 700 700;" xml:space="preserve">
<style type="text/css">
	.st0{fill:#22918E;}
</style>
<g>
	<path class="st0" d="M587.5,466.9c35.3-48.5,56.6-108.1,56.6-172.8C644.1,131.9,512.2,0,350,0S55.9,131.9,55.9,294.1
		c0,64.7,21.3,124.1,56.6,172.8l-51.3,90.2c-6.4,11.5-6.7,25.2-0.8,37c5.9,11.5,17.1,19,29.7,20.2l70,7.6c2.8,0.3,5.3,2,7.3,4.5
		l41.5,58c7.3,10.1,18.8,15.7,30.8,15.7c13.7,0,26.3-7.3,33-19.3l53.2-93.8c8.1,0.6,16,1.1,24.1,1.1c8.1,0,16.2-0.6,24.1-1.1
		l53.2,93.8c6.7,12,19.3,19.3,33,19.3c12,0,23.5-5.9,30.8-16l41.5-58c1.7-2.2,4.2-3.9,6.7-4.2l70-7.6c12.6-1.1,23.8-8.7,29.7-20.2
		c6.2-11.8,5.9-25.5-0.8-37L587.5,466.9z M248,667.2c-2.5,4.5-6.4,5-8.1,5c-1.7,0.3-5.9,0-8.7-4.2l-41.5-57.7
		c-6.2-8.7-15.7-14.6-26.9-16l-70.6-7.6c-4.5-0.6-6.7-3.4-7.6-5.3c-1.1-3.4-1.1-7.3,0.6-10.4l46.2-80.9
		c42.3,47.3,99.7,80.7,164.4,92.7L248,667.2z M350,560.2c-146.8,0-266.1-119.3-266.1-266.1S203.2,28,350,28s266.1,119.3,266.1,266.1
		S496.8,560.2,350,560.2L350,560.2z M614.7,581.2c-0.8,1.7-3.1,4.8-7.8,5.3l-70.6,7.6c-10.6,1.4-20.4,7.3-26.3,16l-41.5,58
		c-3.1,4.2-7,4.2-8.7,4.2c-1.7,0-5.6-0.8-8.1-5l-47.6-84c64.7-12,122.1-45.7,164.4-92.7l45.9,80.9
		C616.4,574.2,616.4,578.1,614.7,581.2L614.7,581.2z"/>
	<path class="st0" d="M508.3,184.9L318.1,375c-5.6,5.6-14.3,5.6-19.9,0L192,268.9c-5.6-5.6-14.3-5.6-19.9,0
		c-5.6,5.6-5.6,14.3,0,19.9l106.2,106.2c8.1,8.1,19,12.3,29.7,12.3c10.6,0,21.6-4.2,29.7-12.3l190.2-190.2c5.6-5.6,5.6-14.3,0-19.9
		C522.3,179.3,513.6,179.5,508.3,184.9z"/>
</g>
</svg>
