<?xml version="1.0" encoding="utf-8"?>
<!-- Generator: Adobe Illustrator 26.0.0, SVG Export Plug-In . SVG Version: 6.00 Build 0)  -->
<svg version="1.1" id="Livello_1" xmlns="http://www.w3.org/2000/svg" xmlns:xlink="http://www.w3.org/1999/xlink" x="0px" y="0px"
	 viewBox="0 0 700 700" style="enable-background:new 0 0 700 700;" xml:space="preserve">
<style type="text/css">
	.st0{fill:#22918E;}
</style>
<path class="st0" d="M621.4,0.1c-33.1,1.8-66.6,21.2-95.1,49.4c-0.3,0.3-87.4,84.2-128.7,128.4L48.3,108c-7.7-1.6-16.1,2.5-19.6,9.5
	L1.7,171.4c-4.2,8.4-0.3,19.9,8.1,24.1l249,124.5L128.5,473.1c-16.2-4.9-34.4-9.3-52.7-8.7c-11.3,0.4-23,2.6-33.1,10.7
	c-10.1,8.1-16,22-16,36.5c0,11.4,3.6,24.8,12.3,37.3c0.1,0.1,112,112,112.2,112.2c12.5,8.7,25.9,12.3,37.3,12.3
	c14.5,0,28.3-5.9,36.5-16c8.1-10.1,10.3-21.8,10.7-33.1c0.6-18.3-3.8-36.6-8.7-52.7L380,441.2l124.5,249c4.2,8.5,15.7,12.3,24.1,8.1
	l53.8-26.9c7-3.5,11.1-12,9.5-19.6l-69.8-349.4c44.3-41.3,128.1-128.4,128.4-128.7c30.1-30.4,49.9-66.5,49.4-101.8
	c-0.3-18.7-6.1-37.7-19.9-51.6C666.2,6.4,646.9,0.4,628.2,0.1C626,0,623.7-0.1,621.4,0.1L621.4,0.1z M627.6,35.9
	c11.5,0.2,21.3,4,26.9,9.5c5.5,5.6,9.4,15.4,9.5,26.9c0.3,20.4-13.9,51-39.5,76.5c-0.3,0.3-87.7,91-134.3,134.3
	c-4.4,4.1-6.5,10.6-5.3,16.5l69,345.5l-25.5,12.6L401.9,405c-4.9-9.6-19.2-12.5-27.5-5.6L194.9,551.9c-5.5,4.6-7.8,12.6-5.6,19.3
	c5.5,16.8,10.8,38.1,10.4,51.6c-0.2,6.7-1.8,10.8-2.8,12.1c-1.1,1.3-1.6,2.5-8.4,2.5c-5.2,0-9.2-1-16-5.6
	c0,0-104.3-104.2-104.3-104.3c-4.6-6.7-5.6-10.8-5.6-16c0-6.8,1.2-7.4,2.5-8.4c1.3-1,5.3-2.6,12.1-2.8c13.5-0.5,34.8,4.9,51.6,10.4
	c6.8,2.2,14.8-0.1,19.3-5.6l152.5-179.5c6.9-8.2,3.9-22.6-5.6-27.5L42.1,171.7l12.6-25.5l345.5,69c5.9,1.2,12.4-0.9,16.5-5.3
	c43.3-46.7,134-134,134.3-134.3C576.7,49.9,607.2,35.6,627.6,35.9L627.6,35.9z"/>
</svg>
