<?xml version="1.0" encoding="utf-8"?>
<!-- Generator: Adobe Illustrator 26.0.0, SVG Export Plug-In . SVG Version: 6.00 Build 0)  -->
<svg version="1.1" id="Livello_1" xmlns="http://www.w3.org/2000/svg" xmlns:xlink="http://www.w3.org/1999/xlink" x="0px" y="0px"
	 viewBox="0 0 700 700" style="enable-background:new 0 0 700 700;" xml:space="preserve">
<style type="text/css">
	.st0{fill:#22918E;}
</style>
<g>
	<path class="st0" d="M606.7,209.8h-70c-6.5-119-65.1-186.7-163.3-186.7h-46.7c-97.5,0-156.1,67.7-163.3,186.7h-70
		c-6.2,0-12.1,2.5-16.5,6.8S70,226.9,70,233.1v420c0,6.2,2.5,12.1,6.8,16.5c4.4,4.4,10.3,6.8,16.5,6.8h513.3
		c6.2,0,12.1-2.5,16.5-6.8c4.4-4.4,6.8-10.3,6.8-16.5v-420c0-6.2-2.5-12.1-6.8-16.5C618.8,212.2,612.9,209.8,606.7,209.8z
		 M326.7,69.8h46.7c71.6,0,110.6,46.7,116.7,140H210C216.1,116.4,255,69.8,326.7,69.8z M583.3,629.8H116.7V256.4h466.7V629.8z"/>
	<path class="st0" d="M350,536.4c-24.8,0-48.5-9.8-66-27.3c-17.5-17.5-27.3-41.2-27.3-66c0-24.8,9.8-48.5,27.3-66
		c17.5-17.5,41.2-27.3,66-27.3s48.5,9.8,66,27.3c17.5,17.5,27.3,41.2,27.3,66c0,24.8-9.8,48.5-27.3,66
		C398.5,526.6,374.8,536.4,350,536.4z M350,396.4c-12.4,0-24.2,4.9-33,13.7c-8.8,8.8-13.7,20.6-13.7,33c0,12.4,4.9,24.2,13.7,33
		c8.8,8.8,20.6,13.7,33,13.7s24.2-4.9,33-13.7c8.8-8.8,13.7-20.6,13.7-33c0-12.4-4.9-24.2-13.7-33
		C374.2,401.4,362.4,396.4,350,396.4z"/>
</g>
</svg>
