<?xml version="1.0" encoding="utf-8"?>
<!-- Generator: Adobe Illustrator 26.0.0, SVG Export Plug-In . SVG Version: 6.00 Build 0)  -->
<svg version="1.1" id="Livello_1" xmlns="http://www.w3.org/2000/svg" xmlns:xlink="http://www.w3.org/1999/xlink" x="0px" y="0px"
	 viewBox="0 0 700 700" style="enable-background:new 0 0 700 700;" xml:space="preserve">
<style type="text/css">
	.st0{fill:#22918E;}
</style>
<path class="st0" d="M614.8,0c-21.9,0-43.8,8.3-60.5,24.8L247.6,331.7c-2.3,2.2-3.9,5.2-4.7,8.1l-32.2,128.3
	c-1.6,5.9,0.2,12.3,4.5,16.7c4.4,4.4,10.8,6.1,16.7,4.5l128.3-32.5c3.1-0.8,5.9-2.3,8.1-4.7L675,145.8c33.3-33.3,33.3-87.7,0-120.8
	C658.3,8.3,636.7,0,614.8,0L614.8,0z M614.8,34.7c12.8,0,25.6,5,35.6,15c20,20,20,51.1,0,71.1l-23,23l-71.2-71.3l22.7-22.7
	C588.9,39.8,602,34.7,614.8,34.7L614.8,34.7z M15.9,87.5C6.9,88.3,0,95.9,0.1,105v577.5c0,9.7,7.8,17.5,17.5,17.5h577.5
	c9.7,0,17.5-7.8,17.5-17.5v-315c0-4.7-1.7-9.2-5-12.5c-3.3-3.3-7.8-5.2-12.5-5.2s-9.2,1.9-12.5,5.2c-3.3,3.3-5.2,7.8-5,12.5V665
	H35.1V122.5h297.5c4.7,0,9.2-1.7,12.5-5c3.3-3.3,5.2-7.8,5.2-12.5s-1.9-9.2-5.2-12.5c-3.3-3.3-7.8-5.2-12.5-5h-315
	C17,87.5,16.5,87.5,15.9,87.5L15.9,87.5z M531.4,97.3l71.4,71.1L347.2,424.1l-95.5,24.4l24.4-95.6L531.4,97.3z"/>
</svg>
